<mxfile host="app.diagrams.net" agent="Mozilla/5.0 (Macintosh; Intel Mac OS X 10_15_7) AppleWebKit/537.36 (KHTML, like Gecko) Chrome/138.0.0.0 Safari/537.36" version="28.2.5">
  <diagram name="Page-1" id="l-80kZAjPc_wlRCBD-D7">
    <mxGraphModel dx="5730" dy="1975" grid="1" gridSize="10" guides="1" tooltips="1" connect="1" arrows="1" fold="1" page="1" pageScale="1" pageWidth="850" pageHeight="1100" math="0" shadow="0">
      <root>
        <mxCell id="0" />
        <mxCell id="1" parent="0" />
        <mxCell id="f56uf3mic9U78Zsdzt85-161" value="" style="rounded=0;whiteSpace=wrap;html=1;" vertex="1" parent="1">
          <mxGeometry x="-800" y="1160" width="2610" height="3660" as="geometry" />
        </mxCell>
        <mxCell id="f56uf3mic9U78Zsdzt85-221" value="" style="rounded=0;whiteSpace=wrap;html=1;align=left;" vertex="1" parent="1">
          <mxGeometry x="413" y="2210" width="272" height="220" as="geometry" />
        </mxCell>
        <mxCell id="f56uf3mic9U78Zsdzt85-222" value="&lt;font style=&quot;font-size: 15px;&quot;&gt;Data Storage&lt;/font&gt;" style="text;html=1;align=center;verticalAlign=middle;whiteSpace=wrap;rounded=0;" vertex="1" parent="1">
          <mxGeometry x="400" y="2220" width="170" height="30" as="geometry" />
        </mxCell>
        <mxCell id="f56uf3mic9U78Zsdzt85-223" value="" style="rounded=0;whiteSpace=wrap;html=1;align=left;" vertex="1" parent="1">
          <mxGeometry x="340" y="1500" width="420" height="220" as="geometry" />
        </mxCell>
        <mxCell id="f56uf3mic9U78Zsdzt85-224" value="&lt;font style=&quot;font-size: 15px;&quot;&gt;Data Processing&lt;/font&gt;" style="text;html=1;align=center;verticalAlign=middle;whiteSpace=wrap;rounded=0;" vertex="1" parent="1">
          <mxGeometry x="340" y="1510" width="170" height="30" as="geometry" />
        </mxCell>
        <mxCell id="f56uf3mic9U78Zsdzt85-225" value="" style="rounded=0;whiteSpace=wrap;html=1;align=left;" vertex="1" parent="1">
          <mxGeometry x="170" y="1840" width="260" height="230" as="geometry" />
        </mxCell>
        <mxCell id="f56uf3mic9U78Zsdzt85-226" value="&lt;font style=&quot;font-size: 15px;&quot;&gt;Data Access&lt;br&gt;(Query and Analysis)&lt;/font&gt;" style="text;html=1;align=center;verticalAlign=middle;whiteSpace=wrap;rounded=0;" vertex="1" parent="1">
          <mxGeometry x="175" y="1860" width="170" height="30" as="geometry" />
        </mxCell>
        <mxCell id="f56uf3mic9U78Zsdzt85-227" value="" style="endArrow=classic;html=1;rounded=0;entryX=0.5;entryY=0;entryDx=0;entryDy=0;exitX=0.387;exitY=1.004;exitDx=0;exitDy=0;exitPerimeter=0;strokeColor=#000000;" edge="1" parent="1" source="f56uf3mic9U78Zsdzt85-223" target="f56uf3mic9U78Zsdzt85-225">
          <mxGeometry width="50" height="50" relative="1" as="geometry">
            <mxPoint x="218.75" y="1750" as="sourcePoint" />
            <mxPoint x="218.75" y="1840" as="targetPoint" />
          </mxGeometry>
        </mxCell>
        <mxCell id="f56uf3mic9U78Zsdzt85-228" value="" style="rounded=0;whiteSpace=wrap;html=1;align=left;" vertex="1" parent="1">
          <mxGeometry x="625" y="1845" width="285" height="230" as="geometry" />
        </mxCell>
        <mxCell id="f56uf3mic9U78Zsdzt85-229" value="&lt;font style=&quot;font-size: 15px;&quot;&gt;Data Management&lt;/font&gt;&lt;div&gt;&lt;font style=&quot;font-size: 15px;&quot;&gt;(Coordination and Scheduling)&lt;/font&gt;&lt;/div&gt;" style="text;html=1;align=center;verticalAlign=middle;whiteSpace=wrap;rounded=0;" vertex="1" parent="1">
          <mxGeometry x="625" y="1860" width="245" height="30" as="geometry" />
        </mxCell>
        <mxCell id="f56uf3mic9U78Zsdzt85-230" value="" style="endArrow=classic;html=1;rounded=0;entryX=0.5;entryY=0;entryDx=0;entryDy=0;exitX=0.632;exitY=0.997;exitDx=0;exitDy=0;exitPerimeter=0;strokeColor=#000000;" edge="1" parent="1" source="f56uf3mic9U78Zsdzt85-223" target="f56uf3mic9U78Zsdzt85-228">
          <mxGeometry width="50" height="50" relative="1" as="geometry">
            <mxPoint x="936.25" y="1750" as="sourcePoint" />
            <mxPoint x="620" y="1859" as="targetPoint" />
          </mxGeometry>
        </mxCell>
        <mxCell id="f56uf3mic9U78Zsdzt85-231" value="" style="endArrow=classic;html=1;rounded=0;entryX=0.5;entryY=0;entryDx=0;entryDy=0;exitX=0.5;exitY=1;exitDx=0;exitDy=0;strokeColor=#000000;" edge="1" parent="1" source="f56uf3mic9U78Zsdzt85-228" target="f56uf3mic9U78Zsdzt85-221">
          <mxGeometry width="50" height="50" relative="1" as="geometry">
            <mxPoint x="763" y="2101" as="sourcePoint" />
            <mxPoint x="560" y="2220" as="targetPoint" />
          </mxGeometry>
        </mxCell>
        <mxCell id="f56uf3mic9U78Zsdzt85-232" value="" style="endArrow=classic;html=1;rounded=0;entryX=0.366;entryY=-0.01;entryDx=0;entryDy=0;exitX=0.5;exitY=1;exitDx=0;exitDy=0;entryPerimeter=0;strokeColor=#000000;" edge="1" parent="1" source="f56uf3mic9U78Zsdzt85-225" target="f56uf3mic9U78Zsdzt85-221">
          <mxGeometry width="50" height="50" relative="1" as="geometry">
            <mxPoint x="589" y="2070" as="sourcePoint" />
            <mxPoint x="370" y="2205" as="targetPoint" />
          </mxGeometry>
        </mxCell>
        <mxCell id="f56uf3mic9U78Zsdzt85-233" value="" style="rounded=0;whiteSpace=wrap;html=1;" vertex="1" parent="1">
          <mxGeometry x="180" y="2600" width="900" height="470" as="geometry" />
        </mxCell>
        <mxCell id="f56uf3mic9U78Zsdzt85-234" value="Library" style="text;html=1;align=center;verticalAlign=middle;whiteSpace=wrap;rounded=0;" vertex="1" parent="1">
          <mxGeometry x="195" y="2640" width="170" height="30" as="geometry" />
        </mxCell>
        <mxCell id="f56uf3mic9U78Zsdzt85-235" value="" style="endArrow=classic;html=1;rounded=0;entryX=0.438;entryY=0.009;entryDx=0;entryDy=0;exitX=0.5;exitY=1;exitDx=0;exitDy=0;entryPerimeter=0;strokeColor=#FFFFFF;" edge="1" parent="1" source="f56uf3mic9U78Zsdzt85-223" target="f56uf3mic9U78Zsdzt85-221">
          <mxGeometry width="50" height="50" relative="1" as="geometry">
            <mxPoint x="550" y="2020" as="sourcePoint" />
            <mxPoint x="763" y="2158" as="targetPoint" />
          </mxGeometry>
        </mxCell>
        <mxCell id="f56uf3mic9U78Zsdzt85-236" value="" style="endArrow=classic;html=1;rounded=0;entryX=0.459;entryY=0.003;entryDx=0;entryDy=0;exitX=0.459;exitY=1.003;exitDx=0;exitDy=0;exitPerimeter=0;entryPerimeter=0;strokeColor=#000000;" edge="1" parent="1">
          <mxGeometry width="50" height="50" relative="1" as="geometry">
            <mxPoint x="520" y="2510" as="sourcePoint" />
            <mxPoint x="520" y="2600" as="targetPoint" />
          </mxGeometry>
        </mxCell>
        <mxCell id="f56uf3mic9U78Zsdzt85-237" value="" style="endArrow=classic;html=1;rounded=0;entryX=0.459;entryY=0.003;entryDx=0;entryDy=0;exitX=0.459;exitY=1.003;exitDx=0;exitDy=0;exitPerimeter=0;entryPerimeter=0;strokeColor=#000000;" edge="1" parent="1">
          <mxGeometry width="50" height="50" relative="1" as="geometry">
            <mxPoint x="544" y="2510" as="sourcePoint" />
            <mxPoint x="544" y="2600" as="targetPoint" />
          </mxGeometry>
        </mxCell>
        <mxCell id="f56uf3mic9U78Zsdzt85-238" value="" style="endArrow=classic;html=1;rounded=0;entryX=0.459;entryY=0.003;entryDx=0;entryDy=0;exitX=0.459;exitY=1.003;exitDx=0;exitDy=0;exitPerimeter=0;entryPerimeter=0;strokeColor=#000000;" edge="1" parent="1">
          <mxGeometry width="50" height="50" relative="1" as="geometry">
            <mxPoint x="570" y="2510" as="sourcePoint" />
            <mxPoint x="570" y="2600" as="targetPoint" />
          </mxGeometry>
        </mxCell>
        <mxCell id="f56uf3mic9U78Zsdzt85-239" value="" style="rounded=0;whiteSpace=wrap;html=1;" vertex="1" parent="1">
          <mxGeometry x="740" y="1240" width="550" height="170" as="geometry" />
        </mxCell>
        <mxCell id="f56uf3mic9U78Zsdzt85-240" value="&lt;font style=&quot;font-size: 15px;&quot;&gt;Depend on&lt;/font&gt;" style="text;html=1;align=center;verticalAlign=middle;whiteSpace=wrap;rounded=0;" vertex="1" parent="1">
          <mxGeometry x="760" y="1310" width="170" height="30" as="geometry" />
        </mxCell>
        <mxCell id="f56uf3mic9U78Zsdzt85-241" value="&lt;font style=&quot;font-size: 15px;&quot;&gt;All depend on&lt;/font&gt;" style="text;html=1;align=center;verticalAlign=middle;whiteSpace=wrap;rounded=0;" vertex="1" parent="1">
          <mxGeometry x="1000" y="1310" width="170" height="30" as="geometry" />
        </mxCell>
        <mxCell id="f56uf3mic9U78Zsdzt85-242" value="" style="endArrow=classic;html=1;rounded=0;entryX=0.459;entryY=0.003;entryDx=0;entryDy=0;exitX=0.459;exitY=1.003;exitDx=0;exitDy=0;exitPerimeter=0;entryPerimeter=0;strokeColor=#000000;" edge="1" parent="1">
          <mxGeometry width="50" height="50" relative="1" as="geometry">
            <mxPoint x="1170" y="1280" as="sourcePoint" />
            <mxPoint x="1170" y="1370" as="targetPoint" />
          </mxGeometry>
        </mxCell>
        <mxCell id="f56uf3mic9U78Zsdzt85-243" value="" style="endArrow=classic;html=1;rounded=0;entryX=0.459;entryY=0.003;entryDx=0;entryDy=0;exitX=0.459;exitY=1.003;exitDx=0;exitDy=0;exitPerimeter=0;entryPerimeter=0;strokeColor=#000000;" edge="1" parent="1">
          <mxGeometry width="50" height="50" relative="1" as="geometry">
            <mxPoint x="1194" y="1280" as="sourcePoint" />
            <mxPoint x="1194" y="1370" as="targetPoint" />
          </mxGeometry>
        </mxCell>
        <mxCell id="f56uf3mic9U78Zsdzt85-244" value="" style="endArrow=classic;html=1;rounded=0;entryX=0.459;entryY=0.003;entryDx=0;entryDy=0;exitX=0.459;exitY=1.003;exitDx=0;exitDy=0;exitPerimeter=0;entryPerimeter=0;strokeColor=#000000;" edge="1" parent="1">
          <mxGeometry width="50" height="50" relative="1" as="geometry">
            <mxPoint x="1220" y="1280" as="sourcePoint" />
            <mxPoint x="1220" y="1370" as="targetPoint" />
          </mxGeometry>
        </mxCell>
        <mxCell id="f56uf3mic9U78Zsdzt85-245" value="" style="endArrow=classic;html=1;rounded=0;entryX=0.459;entryY=0.003;entryDx=0;entryDy=0;exitX=0.459;exitY=1.003;exitDx=0;exitDy=0;exitPerimeter=0;entryPerimeter=0;strokeColor=#000000;" edge="1" parent="1">
          <mxGeometry width="50" height="50" relative="1" as="geometry">
            <mxPoint x="940" y="1290" as="sourcePoint" />
            <mxPoint x="940" y="1380" as="targetPoint" />
          </mxGeometry>
        </mxCell>
        <mxCell id="f56uf3mic9U78Zsdzt85-246" value="" style="rounded=0;whiteSpace=wrap;html=1;" vertex="1" parent="1">
          <mxGeometry x="-215" y="3730" width="900" height="470" as="geometry" />
        </mxCell>
        <mxCell id="f56uf3mic9U78Zsdzt85-247" value="&lt;font style=&quot;font-size: 15px;&quot;&gt;Library&lt;/font&gt;" style="text;html=1;align=center;verticalAlign=middle;whiteSpace=wrap;rounded=0;" vertex="1" parent="1">
          <mxGeometry x="-250" y="3750" width="170" height="30" as="geometry" />
        </mxCell>
        <mxCell id="f56uf3mic9U78Zsdzt85-248" value="File system and I/O operations" style="rounded=0;whiteSpace=wrap;html=1;" vertex="1" parent="1">
          <mxGeometry x="-95" y="3920" width="120" height="60" as="geometry" />
        </mxCell>
        <mxCell id="f56uf3mic9U78Zsdzt85-249" value="Configuration and logging" style="rounded=0;whiteSpace=wrap;html=1;" vertex="1" parent="1">
          <mxGeometry x="75" y="3920" width="120" height="60" as="geometry" />
        </mxCell>
        <mxCell id="f56uf3mic9U78Zsdzt85-250" value="Security and authentication" style="rounded=0;whiteSpace=wrap;html=1;" vertex="1" parent="1">
          <mxGeometry x="245" y="3920" width="120" height="60" as="geometry" />
        </mxCell>
        <mxCell id="f56uf3mic9U78Zsdzt85-251" value="Network communication" style="rounded=0;whiteSpace=wrap;html=1;" vertex="1" parent="1">
          <mxGeometry x="405" y="3920" width="120" height="60" as="geometry" />
        </mxCell>
        <mxCell id="f56uf3mic9U78Zsdzt85-252" value="JVM/OS" style="rounded=0;whiteSpace=wrap;html=1;" vertex="1" parent="1">
          <mxGeometry x="1240" y="2810" width="120" height="60" as="geometry" />
        </mxCell>
        <mxCell id="f56uf3mic9U78Zsdzt85-253" value="" style="endArrow=classic;html=1;rounded=0;entryX=0.459;entryY=0.003;entryDx=0;entryDy=0;exitX=0.459;exitY=1.003;exitDx=0;exitDy=0;exitPerimeter=0;entryPerimeter=0;strokeColor=#000000;" edge="1" parent="1">
          <mxGeometry width="50" height="50" relative="1" as="geometry">
            <mxPoint x="1274.0900000000001" y="2720" as="sourcePoint" />
            <mxPoint x="1274.0900000000001" y="2810" as="targetPoint" />
          </mxGeometry>
        </mxCell>
        <mxCell id="f56uf3mic9U78Zsdzt85-254" value="" style="endArrow=classic;html=1;rounded=0;entryX=0.459;entryY=0.003;entryDx=0;entryDy=0;exitX=0.459;exitY=1.003;exitDx=0;exitDy=0;exitPerimeter=0;entryPerimeter=0;strokeColor=#000000;" edge="1" parent="1">
          <mxGeometry width="50" height="50" relative="1" as="geometry">
            <mxPoint x="1298.0900000000001" y="2720" as="sourcePoint" />
            <mxPoint x="1298.0900000000001" y="2810" as="targetPoint" />
          </mxGeometry>
        </mxCell>
        <mxCell id="f56uf3mic9U78Zsdzt85-255" value="" style="endArrow=classic;html=1;rounded=0;entryX=0.459;entryY=0.003;entryDx=0;entryDy=0;exitX=0.459;exitY=1.003;exitDx=0;exitDy=0;exitPerimeter=0;entryPerimeter=0;strokeColor=#000000;" edge="1" parent="1">
          <mxGeometry width="50" height="50" relative="1" as="geometry">
            <mxPoint x="1324.0900000000001" y="2720" as="sourcePoint" />
            <mxPoint x="1324.0900000000001" y="2810" as="targetPoint" />
          </mxGeometry>
        </mxCell>
        <mxCell id="f56uf3mic9U78Zsdzt85-256" value="" style="rounded=0;whiteSpace=wrap;html=1;align=left;" vertex="1" parent="1">
          <mxGeometry x="-460" y="3290" width="420" height="220" as="geometry" />
        </mxCell>
        <mxCell id="f56uf3mic9U78Zsdzt85-257" value="&lt;font style=&quot;font-size: 15px;&quot;&gt;Data Processing&lt;/font&gt;" style="text;html=1;align=center;verticalAlign=middle;whiteSpace=wrap;rounded=0;" vertex="1" parent="1">
          <mxGeometry x="-460" y="3300" width="170" height="30" as="geometry" />
        </mxCell>
        <mxCell id="f56uf3mic9U78Zsdzt85-258" value="" style="rounded=0;whiteSpace=wrap;html=1;align=left;" vertex="1" parent="1">
          <mxGeometry x="220" y="3310" width="260" height="230" as="geometry" />
        </mxCell>
        <mxCell id="f56uf3mic9U78Zsdzt85-259" value="&lt;font style=&quot;font-size: 15px;&quot;&gt;Data Access&lt;br&gt;(Query and Analysis)&lt;/font&gt;" style="text;html=1;align=center;verticalAlign=middle;whiteSpace=wrap;rounded=0;" vertex="1" parent="1">
          <mxGeometry x="225" y="3330" width="170" height="30" as="geometry" />
        </mxCell>
        <mxCell id="f56uf3mic9U78Zsdzt85-260" value="" style="endArrow=classic;html=1;rounded=0;exitX=0.632;exitY=0.997;exitDx=0;exitDy=0;exitPerimeter=0;strokeColor=#000000;entryX=0.5;entryY=0;entryDx=0;entryDy=0;" edge="1" parent="1" source="f56uf3mic9U78Zsdzt85-256" target="f56uf3mic9U78Zsdzt85-248">
          <mxGeometry width="50" height="50" relative="1" as="geometry">
            <mxPoint x="1596.25" y="3620" as="sourcePoint" />
            <mxPoint x="1280" y="3729" as="targetPoint" />
          </mxGeometry>
        </mxCell>
        <mxCell id="f56uf3mic9U78Zsdzt85-261" value="" style="endArrow=classic;html=1;rounded=0;exitX=0.5;exitY=1;exitDx=0;exitDy=0;strokeColor=#000000;" edge="1" parent="1" source="f56uf3mic9U78Zsdzt85-258" target="f56uf3mic9U78Zsdzt85-250">
          <mxGeometry width="50" height="50" relative="1" as="geometry">
            <mxPoint x="1249" y="3940" as="sourcePoint" />
            <mxPoint x="1030" y="4075" as="targetPoint" />
          </mxGeometry>
        </mxCell>
        <mxCell id="f56uf3mic9U78Zsdzt85-263" value="" style="endArrow=classic;html=1;rounded=0;strokeColor=#000000;exitX=0.25;exitY=1;exitDx=0;exitDy=0;entryX=0.75;entryY=0;entryDx=0;entryDy=0;" edge="1" parent="1" source="f56uf3mic9U78Zsdzt85-258" target="f56uf3mic9U78Zsdzt85-248">
          <mxGeometry width="50" height="50" relative="1" as="geometry">
            <mxPoint x="350" y="3550" as="sourcePoint" />
            <mxPoint x="340" y="3970" as="targetPoint" />
          </mxGeometry>
        </mxCell>
        <mxCell id="f56uf3mic9U78Zsdzt85-264" value="" style="rounded=0;whiteSpace=wrap;html=1;align=left;" vertex="1" parent="1">
          <mxGeometry x="-327" y="4310" width="272" height="220" as="geometry" />
        </mxCell>
        <mxCell id="f56uf3mic9U78Zsdzt85-265" value="&lt;font style=&quot;font-size: 15px;&quot;&gt;Data Storage&lt;/font&gt;" style="text;html=1;align=center;verticalAlign=middle;whiteSpace=wrap;rounded=0;" vertex="1" parent="1">
          <mxGeometry x="-340" y="4320" width="170" height="30" as="geometry" />
        </mxCell>
        <mxCell id="f56uf3mic9U78Zsdzt85-266" value="" style="rounded=0;whiteSpace=wrap;html=1;align=left;" vertex="1" parent="1">
          <mxGeometry x="430" y="4440" width="285" height="230" as="geometry" />
        </mxCell>
        <mxCell id="f56uf3mic9U78Zsdzt85-267" value="&lt;font style=&quot;font-size: 15px;&quot;&gt;Data Management&lt;/font&gt;&lt;div&gt;&lt;font style=&quot;font-size: 15px;&quot;&gt;(Coordination and Scheduling)&lt;/font&gt;&lt;/div&gt;" style="text;html=1;align=center;verticalAlign=middle;whiteSpace=wrap;rounded=0;" vertex="1" parent="1">
          <mxGeometry x="430" y="4455" width="245" height="30" as="geometry" />
        </mxCell>
        <mxCell id="f56uf3mic9U78Zsdzt85-268" value="" style="endArrow=classic;html=1;rounded=0;entryX=0.5;entryY=1;entryDx=0;entryDy=0;strokeColor=#000000;" edge="1" parent="1" target="f56uf3mic9U78Zsdzt85-249">
          <mxGeometry width="50" height="50" relative="1" as="geometry">
            <mxPoint x="557" y="4440" as="sourcePoint" />
            <mxPoint x="190" y="4485.000000000002" as="targetPoint" />
          </mxGeometry>
        </mxCell>
        <mxCell id="f56uf3mic9U78Zsdzt85-269" value="" style="endArrow=classic;html=1;rounded=0;exitX=0.109;exitY=-0.003;exitDx=0;exitDy=0;strokeColor=#000000;exitPerimeter=0;entryX=0.5;entryY=1;entryDx=0;entryDy=0;" edge="1" parent="1" source="f56uf3mic9U78Zsdzt85-266" target="f56uf3mic9U78Zsdzt85-248">
          <mxGeometry width="50" height="50" relative="1" as="geometry">
            <mxPoint x="647" y="4440" as="sourcePoint" />
            <mxPoint x="225" y="3974" as="targetPoint" />
          </mxGeometry>
        </mxCell>
        <mxCell id="f56uf3mic9U78Zsdzt85-270" value="" style="endArrow=classic;html=1;rounded=0;exitX=0.673;exitY=1.011;exitDx=0;exitDy=0;strokeColor=#000000;exitPerimeter=0;entryX=0.5;entryY=0;entryDx=0;entryDy=0;" edge="1" parent="1" source="f56uf3mic9U78Zsdzt85-258" target="f56uf3mic9U78Zsdzt85-251">
          <mxGeometry width="50" height="50" relative="1" as="geometry">
            <mxPoint x="462" y="3610" as="sourcePoint" />
            <mxPoint x="420" y="3990" as="targetPoint" />
          </mxGeometry>
        </mxCell>
        <mxCell id="f56uf3mic9U78Zsdzt85-271" value="" style="endArrow=classic;html=1;rounded=0;exitX=0.5;exitY=1;exitDx=0;exitDy=0;strokeColor=#000000;entryX=0.25;entryY=1;entryDx=0;entryDy=0;" edge="1" parent="1" target="f56uf3mic9U78Zsdzt85-248">
          <mxGeometry width="50" height="50" relative="1" as="geometry">
            <mxPoint x="-198" y="4310" as="sourcePoint" />
            <mxPoint x="-60" y="4280" as="targetPoint" />
          </mxGeometry>
        </mxCell>
        <mxCell id="f56uf3mic9U78Zsdzt85-272" value="" style="endArrow=classic;html=1;rounded=0;exitX=0.656;exitY=-0.012;exitDx=0;exitDy=0;strokeColor=#000000;exitPerimeter=0;" edge="1" parent="1" source="f56uf3mic9U78Zsdzt85-264" target="f56uf3mic9U78Zsdzt85-250">
          <mxGeometry width="50" height="50" relative="1" as="geometry">
            <mxPoint x="-80" y="4430" as="sourcePoint" />
            <mxPoint x="53" y="4100" as="targetPoint" />
          </mxGeometry>
        </mxCell>
        <mxCell id="f56uf3mic9U78Zsdzt85-273" value="" style="endArrow=classic;html=1;rounded=0;exitX=1;exitY=0;exitDx=0;exitDy=0;strokeColor=#000000;entryX=0.5;entryY=1;entryDx=0;entryDy=0;" edge="1" parent="1" source="f56uf3mic9U78Zsdzt85-264" target="f56uf3mic9U78Zsdzt85-251">
          <mxGeometry width="50" height="50" relative="1" as="geometry">
            <mxPoint x="40" y="4670" as="sourcePoint" />
            <mxPoint x="173" y="4340" as="targetPoint" />
          </mxGeometry>
        </mxCell>
        <mxCell id="f56uf3mic9U78Zsdzt85-274" value="" style="endArrow=classic;html=1;rounded=0;entryX=0.75;entryY=1;entryDx=0;entryDy=0;strokeColor=#000000;exitX=0.667;exitY=0.043;exitDx=0;exitDy=0;exitPerimeter=0;" edge="1" parent="1" source="f56uf3mic9U78Zsdzt85-266" target="f56uf3mic9U78Zsdzt85-251">
          <mxGeometry width="50" height="50" relative="1" as="geometry">
            <mxPoint x="912" y="4830" as="sourcePoint" />
            <mxPoint x="490" y="4370" as="targetPoint" />
          </mxGeometry>
        </mxCell>
        <mxCell id="f56uf3mic9U78Zsdzt85-275" value="" style="endArrow=classic;html=1;rounded=0;entryX=0.75;entryY=1;entryDx=0;entryDy=0;strokeColor=#000000;exitX=0.5;exitY=0;exitDx=0;exitDy=0;" edge="1" parent="1" source="f56uf3mic9U78Zsdzt85-266" target="f56uf3mic9U78Zsdzt85-250">
          <mxGeometry width="50" height="50" relative="1" as="geometry">
            <mxPoint x="735" y="4880" as="sourcePoint" />
            <mxPoint x="610" y="4410" as="targetPoint" />
          </mxGeometry>
        </mxCell>
        <mxCell id="f56uf3mic9U78Zsdzt85-276" value="" style="endArrow=classic;html=1;rounded=0;exitX=0.843;exitY=0.988;exitDx=0;exitDy=0;exitPerimeter=0;strokeColor=#000000;entryX=0.25;entryY=0;entryDx=0;entryDy=0;" edge="1" parent="1" source="f56uf3mic9U78Zsdzt85-256" target="f56uf3mic9U78Zsdzt85-251">
          <mxGeometry width="50" height="50" relative="1" as="geometry">
            <mxPoint x="-50" y="3600" as="sourcePoint" />
            <mxPoint x="110" y="4011" as="targetPoint" />
          </mxGeometry>
        </mxCell>
        <mxCell id="f56uf3mic9U78Zsdzt85-277" value="" style="endArrow=classic;html=1;rounded=0;exitX=0.75;exitY=1;exitDx=0;exitDy=0;strokeColor=#000000;" edge="1" parent="1" source="f56uf3mic9U78Zsdzt85-256" target="f56uf3mic9U78Zsdzt85-249">
          <mxGeometry width="50" height="50" relative="1" as="geometry">
            <mxPoint x="-80" y="3580" as="sourcePoint" />
            <mxPoint x="80" y="3991" as="targetPoint" />
          </mxGeometry>
        </mxCell>
        <mxCell id="f56uf3mic9U78Zsdzt85-278" value="JVM/OS" style="rounded=0;whiteSpace=wrap;html=1;" vertex="1" parent="1">
          <mxGeometry x="130" y="4370" width="120" height="60" as="geometry" />
        </mxCell>
        <mxCell id="f56uf3mic9U78Zsdzt85-279" value="" style="endArrow=classic;html=1;rounded=0;exitX=0.75;exitY=1;exitDx=0;exitDy=0;strokeColor=#000000;entryX=0.5;entryY=0;entryDx=0;entryDy=0;" edge="1" parent="1" source="f56uf3mic9U78Zsdzt85-248" target="f56uf3mic9U78Zsdzt85-278">
          <mxGeometry width="50" height="50" relative="1" as="geometry">
            <mxPoint x="1276" y="4389" as="sourcePoint" />
            <mxPoint x="780" y="3930" as="targetPoint" />
          </mxGeometry>
        </mxCell>
      </root>
    </mxGraphModel>
  </diagram>
</mxfile>
